<svg width="16" height="16" viewBox="0 0 16 16" fill="none" xmlns="http://www.w3.org/2000/svg">
    <path d="M14.6975 13.0965C14.6806 13.075 13.0001 10.8892 13.0001 9V5.5C13.0001 4.17392 12.4733 2.90215 11.5356 1.96447C10.5979 1.02678 9.32613 0.5 8.00005 0.5C6.67397 0.5 5.4022 1.02678 4.46452 1.96447C3.52684 2.90215 3.00005 4.17392 3.00005 5.5V9C3.00005 10.8892 1.31955 13.075 1.30255 13.0965C1.27381 13.1335 1.25601 13.1777 1.2512 13.2243C1.24639 13.2709 1.25475 13.3179 1.27533 13.3599C1.29592 13.402 1.32789 13.4374 1.36762 13.4622C1.40735 13.4869 1.45323 13.5 1.50005 13.5H14.5C14.5469 13.5 14.5928 13.4869 14.6325 13.4622C14.6722 13.4374 14.7042 13.402 14.7248 13.3599C14.7453 13.3179 14.7537 13.2709 14.7489 13.2243C14.7441 13.1777 14.7263 13.1335 14.6975 13.0965Z" fill="#5A5E62" />
    <path d="M6.27002 14C6.32979 14.4162 6.53762 14.7969 6.85538 15.0723C7.17314 15.3477 7.57953 15.4993 8.00002 15.4993C8.42051 15.4993 8.8269 15.3477 9.14466 15.0723C9.46242 14.7969 9.67025 14.4162 9.73002 14H6.27002Z" fill="#5A5E62" />
</svg>