<svg width="20" height="20" viewBox="0 0 20 20" fill="none" xmlns="http://www.w3.org/2000/svg">
<path d="M10 0.625C8.1458 0.625 6.33324 1.17483 4.79153 2.20497C3.24982 3.23511 2.04821 4.69929 1.33863 6.41234C0.629062 8.1254 0.443406 10.0104 0.805142 11.829C1.16688 13.6475 2.05976 15.318 3.37088 16.6291C4.68199 17.9402 6.35246 18.8331 8.17103 19.1949C9.9896 19.5566 11.8746 19.3709 13.5877 18.6614C15.3007 17.9518 16.7649 16.7502 17.795 15.2085C18.8252 13.6668 19.375 11.8542 19.375 10C19.3722 7.51446 18.3836 5.13152 16.626 3.37398C14.8685 1.61644 12.4855 0.627812 10 0.625ZM9.6875 2.8125C9.6875 2.72962 9.72043 2.65013 9.77903 2.59153C9.83764 2.53292 9.91712 2.5 10 2.5C10.0829 2.5 10.1624 2.53292 10.221 2.59153C10.2796 2.65013 10.3125 2.72962 10.3125 2.8125V4.375C10.3125 4.45788 10.2796 4.53737 10.221 4.59597C10.1624 4.65458 10.0829 4.6875 10 4.6875C9.91712 4.6875 9.83764 4.65458 9.77903 4.59597C9.72043 4.53737 9.6875 4.45788 9.6875 4.375V2.8125ZM4.375 10.3125H2.8125C2.72962 10.3125 2.65014 10.2796 2.59153 10.221C2.53293 10.1624 2.5 10.0829 2.5 10C2.5 9.91712 2.53293 9.83763 2.59153 9.77903C2.65014 9.72042 2.72962 9.6875 2.8125 9.6875H4.375C4.45788 9.6875 4.53737 9.72042 4.59597 9.77903C4.65458 9.83763 4.6875 9.91712 4.6875 10C4.6875 10.0829 4.65458 10.1624 4.59597 10.221C4.53737 10.2796 4.45788 10.3125 4.375 10.3125ZM10.3125 17.1875C10.3125 17.2704 10.2796 17.3499 10.221 17.4085C10.1624 17.4671 10.0829 17.5 10 17.5C9.91712 17.5 9.83764 17.4671 9.77903 17.4085C9.72043 17.3499 9.6875 17.2704 9.6875 17.1875V15.625C9.6875 15.5421 9.72043 15.4626 9.77903 15.404C9.83764 15.3454 9.91712 15.3125 10 15.3125C10.0829 15.3125 10.1624 15.3454 10.221 15.404C10.2796 15.4626 10.3125 15.5421 10.3125 15.625V17.1875ZM13.8794 7.00437L10.4419 10.4419C10.3247 10.559 10.1657 10.6249 10 10.6249C9.83428 10.6249 9.67533 10.559 9.55813 10.4419L4.55813 5.44187C4.49844 5.38422 4.45082 5.31526 4.41807 5.239C4.38531 5.16275 4.36807 5.08074 4.36735 4.99775C4.36663 4.91476 4.38244 4.83246 4.41387 4.75565C4.44529 4.67884 4.4917 4.60906 4.55038 4.55038C4.60906 4.4917 4.67885 4.44529 4.75566 4.41386C4.83247 4.38244 4.91477 4.36662 4.99775 4.36734C5.08074 4.36806 5.16275 4.38531 5.23901 4.41806C5.31526 4.45082 5.38422 4.49843 5.44188 4.55813L10 9.11594L12.9956 6.12063C13.1135 6.00678 13.2714 5.94378 13.4353 5.9452C13.5991 5.94663 13.7559 6.01236 13.8718 6.12824C13.9876 6.24412 14.0534 6.40088 14.0548 6.56475C14.0562 6.72862 13.9932 6.8865 13.8794 7.00437ZM17.1875 10.3125H15.625C15.5421 10.3125 15.4626 10.2796 15.404 10.221C15.3454 10.1624 15.3125 10.0829 15.3125 10C15.3125 9.91712 15.3454 9.83763 15.404 9.77903C15.4626 9.72042 15.5421 9.6875 15.625 9.6875H17.1875C17.2704 9.6875 17.3499 9.72042 17.4085 9.77903C17.4671 9.83763 17.5 9.91712 17.5 10C17.5 10.0829 17.4671 10.1624 17.4085 10.221C17.3499 10.2796 17.2704 10.3125 17.1875 10.3125Z" fill="#5A5E62"/>
</svg>
